<svg height="511pt" viewBox="0 0 511.99912 511" width="511pt" xmlns="http://www.w3.org/2000/svg"><path d="m336.332031 80.832031h-88.363281c-30.417969 0-55.167969 24.75-55.167969 55.167969v73.367188h-49.265625c-8.285156 0-15 6.714843-15 15v64.265624c0 8.285157 6.714844 15 15 15h49.265625v113.53125c0 8.285157 6.71875 15 15 15h64.269531c8.28125 0 15-6.714843 15-15v-113.53125h49.265626c8.28125 0 15-6.714843 15-15v-64.265624c0-8.285157-6.71875-15-15-15h-49.265626v-34.269532h49.265626c8.28125 0 15-6.714844 15-15v-64.265625c-.003907-8.285156-6.71875-15-15.003907-15zm-15 64.265625h-49.265625c-8.28125 0-15 6.714844-15 15v64.269532c0 8.28125 6.71875 15 15 15h49.265625v34.265624h-49.265625c-8.28125 0-15 6.714844-15 15v113.53125h-34.265625v-113.53125c0-8.285156-6.714843-15-15-15h-49.265625v-34.265624h49.265625c8.285157 0 15-6.71875 15-15v-88.367188c0-13.878906 11.289063-25.167969 25.167969-25.167969h73.363281zm0 0"/><path d="m437.019531 75.480469c-48.351562-48.351563-112.640625-74.980469-181.019531-74.980469s-132.664062 26.628906-181.019531 74.980469c-48.351563 48.351562-74.97656275 112.640625-74.97656275 181.019531 0 51.359375 15.02734375 100.554688 43.54687475 142.847656l-42.183593 91.890625c-2.617188 5.703125-1.4101568 12.429688 3.027343 16.867188 2.875 2.875 6.710938 4.394531 10.609375 4.390625 2.113282 0 4.25-.445313 6.253906-1.367188l91.894532-42.179687c42.292968 28.519531 91.488281 43.546875 142.847656 43.546875 68.378906 0 132.667969-26.625 181.019531-74.976563 48.351563-48.355469 74.980469-112.640625 74.980469-181.023437 0-68.375-26.628906-132.664063-74.980469-181.015625zm-181.019531 407.015625c-47.957031 0-93.769531-14.835938-132.492188-42.90625-2.605468-1.890625-5.695312-2.855469-8.804687-2.855469-2.125 0-4.261719.449219-6.257813 1.367187l-62.9375 28.886719 28.890626-62.9375c2.257812-4.921875 1.691406-10.679687-1.488282-15.0625-28.070312-38.71875-42.910156-84.53125-42.910156-132.488281 0-124.617188 101.382812-226 226-226s226 101.382812 226 226c0 124.613281-101.382812 225.996094-226 225.996094zm0 0"/></svg>